<?xml version="1.0"?>
<svg version="1.1" xmlns="http://www.w3.org/2000/svg" width="400px" height="200px" style="border: dashed 2px #aaa"><path fill="#" d="M2.978515625,83.10546875q0-2.294921875,0.5615234375-3.3447265625t1.611328125-1.46484375t2.5390625-0.3173828125t3.4912109375,0.09765625q5.078125,0,10.25390625,1.5625t9.326171875,4.5654296875t6.689453125,7.3974609375t2.5390625,10.107421875q0,3.80859375-1.0986328125,7.2021484375t-3.1005859375,6.34765625t-4.6875,5.3955078125t-5.908203125,4.248046875q1.318359375,1.318359375,3.41796875,4.6630859375t4.150390625,7.12890625t3.6376953125,7.3486328125t1.8798828125,5.37109375l-0.5859375,0.87890625q-1.318359375,0.78125-3.173828125,0.830078125q-0.87890625,0-2.294921875-0.2197265625t-1.806640625-1.2939453125q-2.001953125-5.615234375-4.3701171875-11.572265625t-5.8349609375-10.7421875l0-0.09765625q-1.220703125,0.48828125-2.4169921875,0.9521484375t-2.4169921875,0.8544921875q0.390625,5.419921875,0.8056640625,10.6689453125t0.4150390625,10.6201171875q0,0.68359375-0.6591796875,1.0986328125t-1.4892578125,0.6591796875t-1.6845703125,0.341796875t-1.3916015625,0.09765625q-0.48828125,0-1.3916015625-0.09765625t-1.7333984375-0.341796875t-1.4404296875-0.7080078125t-0.6103515625-1.2451171875q0-5.419921875-0.244140625-10.8154296875t-0.537109375-10.7666015625q-1.513671875-0.9765625-1.513671875-2.5390625q0-1.220703125,1.171875-1.66015625q-0.5859375-10.302734375-1.3427734375-20.556640625t-0.7568359375-20.654296875z M11.81640625,81.591796875q0.68359375,10.595703125,1.5380859375,20.947265625t1.6357421875,20.947265625q3.41796875-0.9765625,6.3720703125-3.3935546875t5.1025390625-5.4443359375t3.3447265625-6.591796875t1.1962890625-7.080078125q0-3.90625-1.5625-7.4951171875t-4.150390625-6.2744140625q-2.63671875-2.685546875-6.0546875-4.19921875q-3.02734375-1.318359375-6.34765625-1.318359375l-0.87890625,0z M47.98193359375,127.490234375q0-0.9765625,0.2197265625-2.587890625t0.5126953125-3.1982421875t0.68359375-2.9541015625t0.927734375-1.7578125q0.390625-0.390625,1.3427734375-0.78125t2.001953125-0.5615234375t1.953125,0.146484375t1.0986328125,1.2939453125q-0.68359375,0.87890625-1.2451171875,3.0029296875t-0.8544921875,4.7119140625q-0.244140625,2.197265625-0.244140625,4.541015625l0,0.830078125q0.048828125,2.734375,0.48828125,5.029296875t1.3427734375,3.7841796875t2.5146484375,1.4892578125q3.41796875,0,6.25-3.1494140625t5.029296875-7.6904296875t3.857421875-9.6435546875t2.83203125-8.9111328125q0.29296875-1.123046875,1.3916015625-1.513671875t2.3681640625-0.2685546875t2.2705078125,0.6103515625t1.1962890625,1.171875q-0.9765625,8.203125-1.5380859375,16.40625t-0.5615234375,16.50390625q0,1.611328125,0.146484375,2.9541015625t-0.146484375,2.294921875t-1.2939453125,1.513671875t-3.1982421875,0.5615234375q-0.48828125,0-1.2451171875-0.09765625t-1.5625-0.3173828125t-1.3671875-0.6591796875t-0.5615234375-1.025390625q0-3.61328125,0.2685546875-7.421875t0.7568359375-7.373046875q-1.318359375,1.904296875-2.9052734375,3.7841796875t-3.4912109375,3.3935546875t-4.1015625,2.4169921875t-4.736328125,0.9033203125q-3.61328125,0-5.6884765625-1.708984375t-3.125-4.2724609375t-1.318359375-5.5908203125t-0.2685546875-5.859375z M93.9130859375,119.189453125q0-2.001953125,1.171875-3.4423828125t2.8564453125-2.34375t3.6865234375-1.3427734375t3.7109375-0.439453125q1.318359375,0,3.515625,0.390625t4.296875,1.171875t3.6376953125,2.05078125t1.5380859375,2.978515625q0,0.78125-0.5859375,1.3916015625t-1.220703125,0.6103515625q-1.318359375,0-2.392578125-0.8544921875t-2.2216796875-1.806640625t-2.5146484375-1.806640625t-3.076171875-0.8544921875t-3.1005859375,1.0986328125t-1.3916015625,2.9052734375q0,2.978515625,2.099609375,5.8349609375t4.6142578125,6.005859375t4.6142578125,6.6162109375t2.099609375,7.666015625q0,1.806640625-0.7568359375,3.0517578125t-2.001953125,2.0263671875t-2.8076171875,1.1962890625t-3.02734375,0.4150390625q-1.611328125,0-3.759765625-0.7568359375t-4.052734375-2.001953125t-3.1982421875-2.9052734375t-1.2939453125-3.466796875q0-0.87890625,1.2451171875-1.123046875t1.8310546875-0.244140625q0.29296875,0,0.9033203125,0.1953125t1.1962890625,0.439453125t1.0498046875,0.537109375t0.3662109375,0.634765625q0.48828125,0.5859375,1.4892578125,1.7333984375t2.001953125,1.85546875t1.7578125,0.5126953125t0.7568359375-2.197265625q0-3.80859375-2.05078125-7.0068359375t-4.4677734375-6.25t-4.4677734375-6.0546875t-2.05078125-6.4208984375z M128.32080078125,137.109375l0-4.58984375q0-2.490234375,0.1220703125-7.0556640625t0.3173828125-10.009765625t0.537109375-11.3525390625t0.78125-11.1572265625t1.0498046875-9.3994140625t1.3916015625-6.15234375q0.48828125-1.123046875,1.611328125-1.416015625t2.197265625-0.29296875q1.708984375,0,3.0029296875,0.7568359375t1.2939453125,2.7587890625l-0.87890625,0.9765625q-1.708984375,11.279296875-2.197265625,22.65625t-0.68359375,22.75390625q1.220703125-1.904296875,2.7587890625-3.7353515625t3.41796875-3.2470703125t4.052734375-2.2705078125t4.7607421875-0.8544921875q3.3203125,0,5.4931640625,2.001953125t3.5888671875,5.2001953125t2.099609375,7.1533203125t1.0498046875,7.91015625t0.5126953125,7.4951171875t0.439453125,5.8837890625q-0.927734375,1.26953125-2.734375,1.26953125l-0.146484375,0q-0.78125,0-1.708984375-0.1953125t-1.220703125-0.9765625l0.09765625,0.09765625q-0.68359375-1.513671875-0.927734375-4.3701171875t-0.390625-6.298828125t-0.5126953125-7.0556640625t-1.0986328125-6.54296875t-2.1484375-4.833984375t-3.80859375-2.001953125l-0.29296875,0q-2.880859375,0-4.833984375,1.7578125q-2.05078125,1.85546875-3.3203125,4.8828125t-1.953125,6.73828125t-1.0498046875,7.1533203125t-0.5615234375,6.25t-0.48828125,4.1259765625q-0.29296875,1.123046875-1.7333984375,1.4892578125t-2.4658203125,0.3662109375q-2.392578125,0-3.90625-1.3671875q-1.123046875-2.685546875-1.318359375-6.689453125t-0.1953125-7.8125z M175.130859375,142.08984375q-0.048828125-1.46484375-0.048828125-2.9296875q0-4.58984375,0.48828125-9.228515625q0.5859375-6.15234375,0.78125-12.109375q0.1953125-6.982421875,0.5859375-14.501953125q0.244140625-4.1015625,0.244140625-8.10546875q0-3.271484375-0.146484375-6.494140625q0.48828125-1.123046875,1.2939453125-1.513671875t2.0263671875-0.390625q0.5859375,0,1.2451171875,0.09765625t1.1474609375,0.48828125q0.68359375,0.09765625,1.6845703125,0.1953125t1.5380859375,0.5859375q0.1953125,0.29296875,1.0009765625,2.001953125t1.904296875,4.150390625t2.294921875,5.2978515625t2.294921875,5.419921875t1.904296875,4.5166015625t1.0009765625,2.44140625q4.58984375-8.30078125,8.984375-17.0654296875t9.619140625-16.5283203125q0.48828125-0.68359375,1.6845703125-1.0009765625t1.9775390625-0.3173828125q2.099609375,0,3.0517578125,1.0009765625t1.2451171875,2.5634765625q0.1953125,0.9765625,0.244140625,2.099609375q0.048828125,0.5859375-0.048828125,1.220703125q-0.1953125,1.806640625-0.1953125,3.41796875q0,11.376953125-0.78125,22.5830078125t-1.416015625,22.6318359375q-0.09765625,2.34375-0.09765625,4.8828125t0.09765625,5.2734375q0.048828125,0.9765625,0.048828125,1.904296875q0,4.296875-0.732421875,8.0078125q-0.68359375,1.123046875-2.24609375,1.416015625t-2.63671875,0.29296875q-2.294921875,0-4.39453125-1.07421875l-0.537109375-0.634765625l-0.1953125-0.78125t-0.09765625-0.78125q0-7.080078125,0.5126953125-14.2578125t1.1474609375-14.3310546875t1.3427734375-14.2822265625t1.1962890625-14.2578125q-2.880859375,4.78515625-5.5908203125,9.7412109375t-5.1025390625,10.0830078125q-0.87890625,2.001953125-1.6845703125,4.296875t-1.9287109375,4.1015625q-0.5859375,0.87890625-1.9775390625,1.07421875t-2.4169921875,0.1953125q-0.9765625,0-2.0263671875-0.341796875t-1.4404296875-1.46484375q-1.806640625-5.517578125-3.857421875-10.791015625t-4.150390625-10.693359375q0,3.61328125,0.146484375,9.3505859375t0.146484375,11.8896484375t-0.1953125,11.767578125t-0.927734375,8.88671875q-0.1953125,1.220703125-1.5869140625,1.513671875t-2.4169921875,0.29296875q-0.78125,0-1.4892578125-0.09765625t-1.3916015625-0.390625z M232.14599609375,132.71484375q0-2.783203125,0.7080078125-5.7373046875t2.24609375-5.322265625t3.8818359375-3.857421875t5.6640625-1.4892578125q2.490234375,0,5.2490234375,0.8544921875t5.0537109375,2.44140625t3.7353515625,3.8818359375t1.4404296875,5.126953125q0,3.41796875-1.2451171875,6.494140625t-3.4912109375,5.4931640625t-5.2490234375,3.80859375t-6.5185546875,1.3916015625q-2.880859375,0-5.029296875-1.0498046875t-3.5888671875-2.8076171875t-2.1484375-4.150390625t-0.7080078125-5.078125z M239.32373046875,132.6171875q0,0.87890625,0.2685546875,2.587890625t0.8056640625,3.3447265625t1.3916015625,2.83203125t2.0751953125,1.0986328125q2.587890625-0.29296875,4.2724609375-1.6845703125t2.734375-3.3935546875t1.46484375-4.345703125t0.4150390625-4.443359375q0-2.685546875-1.0498046875-4.4921875t-3.4423828125-2.9296875q0,0.09765625,0.09765625,0.09765625t0.09765625-0.09765625l-1.220703125-0.29296875q-0.48828125-0.1953125-1.1962890625-0.439453125t-1.3916015625-1.07421875q-1.904296875,0.68359375-2.9541015625,1.7578125t-1.5869140625,2.6123046875t-0.6591796875,3.6865234375t-0.1220703125,5.17578125z M269.1416015625,117.578125q0-3.41796875,0.3173828125-8.88671875t0.7568359375-11.279296875t1.0986328125-11.0107421875t1.4404296875-7.9833984375q0.29296875-1.220703125,1.3916015625-1.46484375t2.2216796875-0.244140625q1.513671875,0,2.6123046875,0.537109375t1.0986328125,2.34375q0,8.88671875-1.0986328125,17.7978515625t-1.1962890625,17.7978515625q1.513671875-2.294921875,3.90625-3.4423828125t5.078125-1.1474609375q3.7109375,0,6.396484375,1.513671875t4.345703125,3.90625t2.4658203125,5.5419921875t0.8056640625,6.4208984375q0,1.806640625-0.3662109375,4.5166015625t-1.0986328125,5.712890625t-1.85546875,5.95703125t-2.6611328125,5.2978515625t-3.5400390625,3.7841796875t-4.39453125,1.4404296875q-0.48828125,0-1.2939453125-0.146484375t-1.611328125-0.439453125t-1.3427734375-0.7568359375t-0.537109375-1.1474609375q0-0.78125,0.9521484375-1.0986328125t1.5380859375-0.3173828125q2.197265625-0.9765625,3.90625-4.0771484375t2.8564453125-6.8115234375t1.7333984375-7.3486328125t0.5859375-5.9326171875q0-1.318359375-0.390625-3.515625t-1.1962890625-4.345703125t-2.197265625-3.7109375t-3.2958984375-1.5625q-2.294921875,0-3.662109375,2.3681640625t-2.1484375,5.517578125t-1.0498046875,6.494140625t-0.2685546875,5.2490234375q0,1.220703125,0.4150390625,2.4169921875t0.9521484375,2.392578125t0.9521484375,2.44140625t0.4150390625,2.4658203125q0,0.5859375-0.5126953125,0.9765625t-1.1962890625,0.634765625t-1.4404296875,0.3173828125t-1.1474609375,0.0732421875q-2.783203125,0-3.857421875-1.318359375t-1.85546875-3.7109375q-1.708984375-5.419921875-2.3681640625-11.0107421875t-0.6591796875-11.2060546875z M310.77587890625,130.615234375q0-4.4921875,1.0498046875-8.8134765625t1.7822265625-8.6181640625q0.1953125-1.123046875,1.5380859375-1.3916015625t2.2705078125-0.2685546875q1.611328125,0,2.587890625,0.48828125q0.390625,0.1953125,0.732421875,0.439453125t0.341796875,0.634765625q0,4.19921875-1.0009765625,8.203125t-1.0009765625,8.49609375q0,1.513671875,0.2197265625,2.8564453125t0.4150390625,2.6611328125l0.29296875,1.416015625q0,0.390625,0.048828125,0.68359375t0.146484375,0.68359375q0,0.87890625-1.2451171875,1.1962890625t-2.1728515625,0.3173828125q-1.416015625,0-2.6123046875-0.5615234375t-1.8798828125-1.9287109375l-0.68359375-1.416015625q-0.5859375-1.123046875-0.5859375-2.5146484375t-0.244140625-2.5634765625z M313.90087890625,101.220703125l0-0.927734375q0-2.294921875,1.1474609375-4.1015625t3.4423828125-1.806640625q0.29296875,0,0.5615234375,0.048828125t0.5615234375,0.048828125q0.5859375,0.09765625,1.5380859375,0.4638671875t0.9521484375,1.1474609375l0,0.09765625q-0.1953125,0.390625-0.244140625,0.8056640625t-0.244140625,0.7080078125l0.09765625-0.09765625q-0.5859375,1.513671875-0.9521484375,2.44140625t-0.8056640625,1.4892578125t-1.0986328125,0.8056640625t-1.8798828125,0.244140625q-0.1953125,0-0.68359375-0.048828125t-1.0498046875-0.1953125t-0.9521484375-0.390625t-0.390625-0.732421875z M332.09765625,149.12109375q0-1.416015625,0.1220703125-2.978515625t0.2197265625-2.9296875l0.29296875-7.32421875q0.48828125-8.7890625,1.1962890625-17.28515625t1.1962890625-17.1875q0.29296875-4.78515625,0.439453125-9.3994140625t0.439453125-9.3994140625q-0.1953125-0.390625-0.1953125-0.537109375q0-0.68359375,0.5126953125-1.07421875t1.1962890625-0.6591796875t1.4404296875-0.3662109375t1.1474609375-0.09765625l1.123046875,0q1.513671875,0.1953125,2.197265625,0.9521484375t0.87890625,1.806640625t0.09765625,2.24609375t-0.09765625,2.2216796875q0,7.080078125-0.341796875,14.4287109375t-0.78125,14.74609375t-0.8056640625,14.794921875t-0.3662109375,14.6240234375l0,3.41796875q0,2.294921875-1.2939453125,3.02734375t-3.5888671875,0.732421875q-2.001953125,0-3.515625-0.87890625t-1.513671875-2.880859375z M354.49365234375,133.7890625q0-3.41796875,0.7568359375-8.056640625t2.5634765625-8.7890625t4.7607421875-7.0556640625t7.4462890625-2.9052734375q4.19921875,0,6.298828125,2.4169921875t2.099609375,6.5185546875q0,2.685546875-1.0009765625,5.8837890625t-2.8564453125,6.0546875t-4.39453125,4.7607421875t-5.6640625,1.904296875l-1.26953125-0.09765625q0,1.318359375,0.390625,3.5400390625t1.1474609375,4.4189453125t1.953125,3.857421875t2.9052734375,1.66015625q2.490234375,0,4.78515625-2.001953125t4.345703125-4.443359375t3.80859375-4.443359375t3.22265625-2.001953125q0.78125,0,1.611328125,0.244140625t0.927734375,1.3671875q0,0.68359375-0.3662109375,1.123046875t-0.6591796875,0.9765625q-1.513671875,2.587890625-3.2958984375,4.931640625t-4.0283203125,4.248046875t-4.9072265625,3.0029296875t-5.8837890625,1.0986328125q-4.19921875,0-6.982421875-1.4892578125t-4.4921875-4.00390625t-2.4658203125-5.810546875t-0.7568359375-6.9091796875z M363.23388671875,130.078125l1.3671875,1.220703125q0.9765625,0.87890625,1.953125,0.390625t1.7578125-1.7822265625t1.4404296875-3.1982421875t1.171875-3.90625t0.7568359375-3.90625t0.244140625-3.173828125l0-1.66015625t-0.146484375-1.7578125t-0.5126953125-1.3916015625t-1.1474609375-0.7080078125q-0.244140625-0.048828125-0.439453125-0.048828125q-1.66015625,0-2.83203125,2.099609375q-1.26953125,2.34375-2.05078125,5.6884765625t-1.123046875,6.8603515625t-0.439453125,5.2734375z"/><path fill="#" d=""/></svg>
